# File created by Blade
# Date/Time:  Tue Sep 23 19:15:59 2014
# Frame Rate: 120.000 fps
#------------------------------------------------------
:FULLY-SPECIFIED
:DEGREES
2235
root -8.588571 32.689732 -3.036856 36.535295 -6.340867 0.204650
Spine -35.073144 -8.788115 9.790008
Head 6.536400 -5.036714 -6.934151
LeftShoulder -14.945019 48.701444 20.376871
LeftArm 41.483816 -28.822304 -70.527542
LeftForeArm 34.754167 -0.000000 28.122660
LeftHand 37.809021 -0.000000 22.403850
LeftHandThumb1 -26.253704 0.000000 33.147579
RightShoulder -13.967692 -51.079484 -18.523821
RightArm 48.626878 18.532690 66.862919
RightForeArm 17.318385 0.000000 27.178965
RightHand 14.686834 0.000000 -3.998495
RightHandThumb1 -24.326973 -0.000000 -32.862282
LeftUpLeg -31.507109 2.762696 6.573202
LeftLeg 10.754261 -0.000000 -0.000000
LeftFoot -11.876771 -1.398912 -7.962205
LeftToeBase 3.574241 -0.000000 -0.000000
RightUpLeg -38.477788 -2.434358 -0.140636
RightLeg 8.602296 -0.000000 -0.000000
RightFoot -8.489170 -2.117249 14.652726
RightToeBase 11.443451 -0.000000 -0.000000
2236
root -8.647456 32.680160 -3.062958 36.396202 -5.947809 0.370060
Spine -34.940115 -8.767364 9.554681
Head 6.357174 -4.951425 -7.092381
LeftShoulder -14.972791 48.640510 20.454799
LeftArm 41.666416 -29.090927 -70.138393
LeftForeArm 36.068622 -0.000000 27.635914
LeftHand 36.685878 -0.000000 23.932495
LeftHandThumb1 -26.253704 0.000000 33.147579
RightShoulder -13.934690 -51.156036 -18.604482
RightArm 48.700926 18.444008 66.440025
RightForeArm 17.170362 0.000000 26.955670
RightHand 14.588078 -0.000000 -3.925316
RightHandThumb1 -24.326973 -0.000000 -32.862282
LeftUpLeg -31.628651 3.404214 6.144986
LeftLeg 10.477672 -0.000000 -0.000000
LeftFoot -12.498868 -0.403011 -7.613541
LeftToeBase 3.366862 -0.000000 -0.000000
RightUpLeg -38.365855 -2.285973 -0.283180
RightLeg 8.702041 -0.000000 -0.000000
RightFoot -8.870392 -2.626909 14.561234
RightToeBase 11.475914 -0.000000 -0.000000
2237
root -8.703136 32.671663 -3.092312 36.272856 -5.546313 0.525855
Spine -34.802276 -8.698769 9.298932
Head 6.182171 -4.980249 -7.245142
LeftShoulder -14.899239 48.544907 20.568628
LeftArm 41.872158 -29.428988 -69.759522
LeftForeArm 37.082137 0.000000 27.098730
LeftHand 35.984433 -0.000000 25.239037
LeftHandThumb1 -26.253704 0.000000 33.147579
RightShoulder -14.092825 -51.198616 -18.556497
RightArm 48.873075 18.388059 66.116407
RightForeArm 16.959442 -0.000000 26.637018
RightHand 14.448303 -0.000000 -3.897115
RightHandThumb1 -24.326973 -0.000000 -32.862282
LeftUpLeg -31.799007 4.101776 5.703734
LeftLeg 10.218402 -0.000000 -0.000000
LeftFoot -12.858822 0.092568 -7.398545
LeftToeBase 3.082260 -0.000000 -0.000000
RightUpLeg -38.237152 -2.060839 -0.460946
RightLeg 8.727582 -0.000000 -0.000000
RightFoot -9.241230 -3.273238 14.437564
RightToeBase 11.525666 -0.000000 -0.000000
2238
root -8.757382 32.664579 -3.119581 36.153634 -5.116409 0.607530
Spine -34.679034 -8.700487 9.207047
Head 6.005553 -4.889601 -7.445274
LeftShoulder -15.044314 48.515050 20.487775
LeftArm 42.143911 -29.788128 -69.459035
LeftForeArm 38.474788 -0.000000 26.610028
LeftHand 35.109960 -0.000000 26.491159
LeftHandThumb1 -26.253704 0.000000 33.147579
RightShoulder -14.077246 -51.154127 -18.683940
RightArm 49.009551 18.363226 65.878547
RightForeArm 16.545898 -0.000000 26.301465
RightHand 14.543344 -0.000000 -3.784846
RightHandThumb1 -24.326973 -0.000000 -32.862282
LeftUpLeg -31.990755 4.843427 5.306000
LeftLeg 9.977308 -0.000000 -0.000000
LeftFoot -13.055015 0.292069 -7.104143
LeftToeBase 2.337710 -0.000000 -0.000000
RightUpLeg -38.064409 -1.808952 -0.589798
RightLeg 8.682005 -0.000000 -0.000000
RightFoot -9.529141 -3.855159 14.469450
RightToeBase 11.584762 -0.000000 -0.000000
2239
root -8.811538 32.660320 -3.145320 36.014532 -4.614755 0.653536
Spine -34.528952 -8.749839 9.179920
Head 5.839653 -4.832357 -7.611140
LeftShoulder -14.863895 48.248958 20.683518
LeftArm 41.972711 -30.250933 -69.261725
LeftForeArm 39.344531 -0.000000 26.369458
LeftHand 34.681879 -0.000000 26.943181
LeftHandThumb1 -26.253704 0.000000 33.147579
RightShoulder -14.088225 -51.119269 -18.757252
RightArm 49.133616 18.380595 65.677448
RightForeArm 16.407799 0.000000 26.086493
RightHand 14.528228 0.000000 -3.931703
RightHandThumb1 -24.326973 -0.000000 -32.862282
LeftUpLeg -32.228193 5.554511 4.961978
LeftLeg 9.828654 -0.000000 -0.000000
LeftFoot -13.213894 0.032468 -6.857229
LeftToeBase 1.470769 -0.000000 -0.000000
RightUpLeg -37.801777 -1.639107 -0.622103
RightLeg 8.522438 -0.000000 -0.000000
RightFoot -9.738890 -4.400592 14.492710
RightToeBase 11.610604 -0.000000 -0.000000
2240
root -8.856853 32.658465 -3.176360 35.961675 -4.172473 0.711888
Spine -34.460662 -8.708613 9.089749
Head 5.672144 -4.793474 -7.755821
LeftShoulder -15.039659 48.300964 20.579441
LeftArm 42.418764 -30.566518 -69.090611
LeftForeArm 40.368956 -0.000000 25.952469
LeftHand 34.000032 -0.000000 27.832086
LeftHandThumb1 -26.253704 0.000000 33.147579
RightShoulder -14.186583 -51.084330 -18.781547
RightArm 49.265856 18.412016 65.529659
RightForeArm 16.276769 -0.000000 25.820706
RightHand 14.635490 0.000000 -4.137329
RightHandThumb1 -24.326973 -0.000000 -32.862282
LeftUpLeg -32.558633 6.176984 4.618572
LeftLeg 9.684283 -0.000000 -0.000000
LeftFoot -13.210295 -0.471121 -7.035756
LeftToeBase -0.255574 -0.000000 0.000000
RightUpLeg -37.591590 -1.590274 -0.609173
RightLeg 8.238544 -0.000000 -0.000000
RightFoot -9.827711 -4.778376 14.521291
RightToeBase 11.684725 -0.000000 -0.000000
2241
root -8.896612 32.658327 -3.201359 35.892424 -3.609499 0.727661
Spine -34.397162 -8.758890 9.175124
Head 5.467829 -4.705315 -8.005788
LeftShoulder -14.955592 48.197643 20.664019
LeftArm 42.432416 -30.887986 -68.927562
LeftForeArm 41.363390 -0.000000 25.661797
LeftHand 33.324396 -0.000000 28.697679
LeftHandThumb1 -26.253704 0.000000 33.147579
RightShoulder -14.170821 -51.037168 -18.952334
RightArm 49.280167 18.467307 65.422950
RightForeArm 16.203523 0.000000 25.727986
RightHand 14.752624 -0.000000 -4.313689
RightHandThumb1 -24.326973 -0.000000 -32.862282
LeftUpLeg -32.893715 6.620838 4.419637
LeftLeg 9.582674 -0.000000 -0.000000
LeftFoot -13.071734 -1.350066 -7.152150
LeftToeBase -1.708693 -0.000000 0.000000
RightUpLeg -37.306298 -1.722836 -0.443071
RightLeg 7.888615 -0.000000 -0.000000
RightFoot -9.850045 -5.011125 14.590797
RightToeBase 11.744855 -0.000000 -0.000000
